<svg style="position:absolute;width:0;height:0" width="0" height="0" xmlns="http://www.w3.org/2000/svg"><defs><symbol viewBox="0 0 877.7142857142858 1024"><title>twitter</title><path class="path1" d="M731.43 348.57q-32 14.287-69.144 19.43 38.857-22.857 53.143-66.857-37.144 21.714-76.572 29.143-34.857-37.714-87.43-37.714-49.713 0-84.856 35.143t-35.143 84.857q0 16.57 2.856 27.43-73.714-4-138.286-37.144t-109.714-88.57q-16.57 28.57-16.57 60.57 0 65.143 52 100-26.858-.57-57.144-14.857v1.144q0 42.857 28.57 76.286t70.287 41.43q-16.572 4.57-29.144 4.57-7.43 0-22.286-2.286 12 36 42.57 59.43t69.43 24Q257.714 716 174.857 716q-14.857 0-28.57-1.714 84.57 53.714 184 53.714 64 0 120-20.286t96-54.286 68.856-78.286T658 522.574t14-96.287q0-10.286-.57-15.43 36-25.713 60-62.285zm146.284-110.856v548.57q0 68-48.286 116.287t-116.286 48.287h-548.57q-68 0-116.287-48.286T0 786.286v-548.57q0-68 48.285-116.287T164.57 73.142h548.572q68 0 116.286 48.286t48.286 116.286z"/></symbol><symbol viewBox="0 0 877.7142857142858 1024"><title>facebook</title><path class="path1" d="M713.143 73.143q68 0 116.286 48.286t48.285 116.285v548.57q0 68-48.286 116.287t-116.287 48.286h-107.43v-340H719.43l17.143-132.57H605.715v-84.572q0-32 13.43-48t52.285-16l69.713-.57V210.858q-36-5.144-101.714-5.144-77.715 0-124.287 45.714t-46.57 129.143v97.714H354.285v132.57h114.286v340h-304q-68 0-116.286-48.285T0 786.286v-548.57q0-68 48.286-116.287t116.286-48.287h548.57z"/></symbol><symbol viewBox="0 0 366 1024"><title>arrow-left</title><path class="path1" d="M358.286 310.857q0 7.43-5.714 13.143l-224.57 224.57 224.57 224.572q5.714 5.714 5.714 13.143t-5.714 13.143l-28.57 28.57q-5.715 5.715-13.144 5.715T297.715 828L31.43 561.712Q25.714 556 25.714 548.57t5.714-13.143L297.714 269.14q5.714-5.713 13.143-5.713T324 269.14l28.572 28.572q5.714 5.714 5.714 13.143z"/></symbol><symbol viewBox="0 0 366 1024"><title>arrow-right</title><path class="path1" d="M340 548.57q0 7.43-5.714 13.144L68 828q-5.714 5.714-13.143 5.714T41.714 828l-28.57-28.57q-5.715-5.715-5.715-13.144t5.713-13.143l224.57-224.57L13.144 324Q7.43 318.288 7.43 310.86t5.713-13.143l28.57-28.57q5.715-5.715 13.144-5.715T68 269.144L334.286 535.43Q340 541.144 340 548.573z"/></symbol><symbol viewBox="0 0 1024 1024"><title>weibo</title><path class="path1" d="M385.714 733.714q12-19.43 6.286-39.43t-25.714-28.57q-19.43-8-41.714-.57t-34.286 26.285q-12.57 19.428-7.43 39.142t24.572 28.857 42.57 1.428 35.715-27.143zm53.715-69.143q4.57-7.428 2-15.142t-10-10.57q-8-2.858-16.287.285t-12.286 10.57q-9.714 17.715 7.43 25.715 8 2.857 16.57-.286t12.57-10.57zm99.427 61.144Q513.143 784 448.57 811.428t-128 6.857Q259.43 798.855 236.286 746T240 638.855q26.856-53.143 86.57-79.43t120.286-10.856q63.43 16.57 90.57 68.286t1.43 108.857zm178.286-91.428Q712 579.43 666.286 537.143t-119.143-62.286-156.857-12Q262.856 476 179.143 543.714T103.43 694.857q5.142 54.857 50.856 97.143t119.143 62.286 156.856 12q127.43-13.143 211.143-80.857t75.713-151.144zm176 2.285q0 38.858-21.143 79.715t-62.286 78.286-96.286 67.144-129.143 47.43-154.57 17.713-157.144-19.143-137.428-53.143-98-86.285T0 654.285q0-65.714 39.713-140t112.857-147.43Q249.14 270.286 347.713 232t140.857 4q37.143 36.57 11.43 119.428-2.287 8-.572 11.43t5.714 4 8.286-.287 7.714-2l3.43-1.142Q604 333.714 665.14 333.714t87.43 34.857q25.713 36 0 101.715-1.144 7.43-2.572 11.43t2.57 7.142 6.858 4.286 9.714 3.43q32.57 10.285 58.857 26.856T873.712 570t19.43 66.57zM850.857 280q24 26.857 31.143 62t-3.714 67.143q-4.57 13.143-16.857 19.43T836 430.857q-13.143-4.57-19.43-16.857t-2.285-25.428q11.43-36-13.714-63.43t-61.142-20q-13.714 2.858-25.714-4.57t-14.286-21.143q-2.857-13.715 4.57-25.43t21.144-14.57q34.286-7.43 68 3.142t57.714 37.43zm103.43-93.143Q1004 241.714 1018.57 314t-7.714 138q-5.143 15.43-19.43 22.857t-29.713 2.286-22.857-19.43T936 428q16-46.857 5.715-98.286T896 239.428q-35.428-39.43-84.57-54.57T712.573 180q-16 3.43-29.714-5.43t-17.144-24.856 5.43-29.43T696 103.43q70.286-14.857 139.43 6.57t118.856 76.858z"/></symbol><symbol viewBox="0 0 877.7142857142858 1024"><title>file-archive</title><path class="path1" d="M365.714 219.43v-73.144H292.57v73.143h73.144zm73.143 73.14V219.43h-73.143v73.143h73.143zm-73.143 73.144V292.57H292.57v73.144h73.144zm73.143 73.143v-73.143h-73.143v73.143h73.143zm400-221.714q16 16 27.43 43.43t11.428 50.285v658.286q0 22.857-16 38.857t-38.857 16h-768Q32 1024 16 1008T0 969.145V54.858Q0 32 16 16T54.86 0h512q22.857 0 50.286 11.43t43.43 27.43zM585.143 77.713v214.858H800q-5.714-16.57-12.57-23.428L608.57 90.285q-6.857-6.857-23.43-12.57zM804.57 950.858V365.714H566.858q-22.857 0-38.857-16t-16-38.857V73.143h-73.143v73.143h-73.143V73.143H73.144v877.714H804.57zm-358.284-412l61.143 199.43Q512 753.714 512 768q0 47.43-41.43 78.57t-104.856 31.144-104.857-31.143-41.43-78.57q0-14.286 4.572-29.714 12-36 68.57-226.286v-73.143h73.143V512h45.143q12.57 0 22.286 7.43t13.143 19.428zM365.714 804.57q30.286 0 51.714-10.856T438.858 768t-21.43-25.714-51.714-10.857T314 742.285 292.57 768 314 793.714t51.714 10.857z"/></symbol></defs></svg>